<svg id="Ebene_1" data-name="Ebene 1" xmlns="http://www.w3.org/2000/svg" viewBox="0 0 60 60"><defs><style>.cls-1{fill:#ffffff;}</style></defs><title>Icon</title><path class="cls-1" d="M50.33,49.69a20.35,20.35,0,0,0-16.94-20,3.77,3.77,0,0,0,.42-1.7,3.81,3.81,0,0,0-7.62,0,3.76,3.76,0,0,0,.42,1.7,20.35,20.35,0,0,0-16.94,20v1.5H50.33ZM30,27.15a.81.81,0,1,1-.81.81A.81.81,0,0,1,30,27.15Zm-17.27,21a17.33,17.33,0,0,1,34.54,0Z"/><rect class="cls-1" x="5.13" y="52.52" width="49.75" height="3"/><path class="cls-1" d="M20.87,24.93a1,1,0,1,0,1.4,1.43,6.9,6.9,0,0,0,1-7.95c-1-2.07-1.19-5.11.31-6.6a1,1,0,0,0-1.41-1.42c-2.22,2.2-2,6.23-.7,8.9A4.88,4.88,0,0,1,20.87,24.93Z"/><path class="cls-1" d="M28.92,20a1,1,0,0,0,.52,1.31,1,1,0,0,0,.4.08,1,1,0,0,0,.92-.6,5.42,5.42,0,0,0-.32-5.06,3.86,3.86,0,0,1-.58-2.29,6.85,6.85,0,0,1,.54-1.54,9.45,9.45,0,0,0,.82-6.64,1,1,0,1,0-1.93.51,7.53,7.53,0,0,1-.72,5.34,8.18,8.18,0,0,0-.69,2.06,5.69,5.69,0,0,0,.76,3.41A3.47,3.47,0,0,1,28.92,20Z"/><path class="cls-1" d="M37.29,27.1a1,1,0,0,0,.79-1.61,6.81,6.81,0,0,1-1.41-3.34,3.39,3.39,0,0,1,.68-1.5,5.54,5.54,0,0,0,.88-5.34,1,1,0,0,0-1.88.69c.57,1.57,0,2.51-.7,3.59a4.83,4.83,0,0,0-1,2.56,8.69,8.69,0,0,0,1.84,4.57A1,1,0,0,0,37.29,27.1Z"/></svg>
