<svg xmlns="http://www.w3.org/2000/svg" viewBox="0 0 50 37.91"><defs><style>.cls-1{fill:#231f20;}</style></defs><title>Element 4</title><g id="Ebene_2" data-name="Ebene 2"><g id="Ebene_1-2" data-name="Ebene 1"><path class="cls-1" d="M44,10.91a10.89,10.89,0,0,0-9.13-5.57,10.89,10.89,0,0,0-9.13,5.57H22.23A10.61,10.61,0,0,0,12,1.13,10.61,10.61,0,0,0,1.7,10.91H0v1.54c0,9.41,6,18,14,22.17v3.29H35.68l-.07-3A24.87,24.87,0,0,0,50,12.44V10.91ZM33.59,32.78l-.88.26.11,1.86H17v-2l-1-.3A22.31,22.31,0,0,1,2.86,13.91H47.05A22.31,22.31,0,0,1,33.59,32.78Z"/><path class="cls-1" d="M24.25,8.49s1.68-4.24,7.43-4.7C31.07,2,28,0,24.77,0a10.24,10.24,0,0,0-5.18,1.4A8.49,8.49,0,0,1,24.25,8.49Z"/></g></g></svg>