<svg id="Ebene_1" data-name="Ebene 1" xmlns="http://www.w3.org/2000/svg" viewBox="0 0 25 50"><defs><style>.cls-1{fill:#ffcb00;}</style></defs><title>Icon</title><path class="cls-1" d="M13.21,16s3.91.66,5.92-1.35,1.35-5.92,1.35-5.92-3.91-.66-5.92,1.35S13.21,16,13.21,16"/><path class="cls-1" d="M11.79,16s.66-3.91-1.35-5.92S4.52,8.74,4.52,8.74s-.66,3.91,1.35,5.92S11.79,16,11.79,16"/><path class="cls-1" d="M14.56,18.13c-2,2-1.35,5.92-1.35,5.92s3.91.66,5.92-1.35,1.35-5.92,1.35-5.92-3.91-.66-5.92,1.35"/><path class="cls-1" d="M4.52,16.77s-.66,3.91,1.35,5.92S11.79,24,11.79,24s.66-3.91-1.35-5.92-5.92-1.35-5.92-1.35"/><path class="cls-1" d="M14.56,26.15c-2,2-1.35,5.92-1.35,5.92s3.91.66,5.92-1.35,1.35-5.92,1.35-5.92-3.91-.66-5.92,1.35"/><path class="cls-1" d="M11.79,32.07s.66-3.91-1.35-5.92S4.52,24.8,4.52,24.8s-.66,3.91,1.35,5.92,5.92,1.35,5.92,1.35"/><path class="cls-1" d="M12.48,10.54S15.7,8.24,15.7,5.39,12.48.24,12.48.24,9.26,2.55,9.26,5.39s3.22,5.15,3.22,5.15"/><polygon class="cls-1" points="18.91 33.69 12.57 40.03 6.23 33.69 4.67 35.25 11.01 41.59 4.67 47.93 6.23 49.49 12.57 43.16 18.91 49.49 20.47 47.93 14.13 41.59 20.47 35.25 18.91 33.69"/><polygon class="cls-1" points="11.49 45.82 11.49 49.76 13.68 49.76 13.68 45.82 12.57 44.74 11.49 45.82"/><polygon class="cls-1" points="11.49 37.37 12.6 38.45 13.68 37.37 13.68 33.43 11.49 33.43 11.49 37.37"/></svg>