<svg id="Ebene_1" data-name="Ebene 1" xmlns="http://www.w3.org/2000/svg" viewBox="0 0 25 50"><defs><style>.cls-1{fill:#1d1d1b;}</style></defs><title>Icon</title><path class="cls-1" d="M23,44.6V20.14a14.44,14.44,0,0,0-3.13-9.46c-.18-.25-.35-.48-.49-.69a7.56,7.56,0,0,1-1.29-3.32V6.6h.39V.18H6.58V6.59h.33v.06A7.57,7.57,0,0,1,5.63,10c-.14.21-.31.45-.49.69A14.44,14.44,0,0,0,2,20.14V44.6a5.75,5.75,0,0,0,1.41,3.9,4.5,4.5,0,0,0,3.36,1.34H18.23a4.5,4.5,0,0,0,3.36-1.34A5.75,5.75,0,0,0,23,44.6M8.23,1.81h8.6V5H8.23Zm10,46.37H6.77c-3.26,0-3.13-3.57-3.13-3.57V20.14c0-5.33,2.16-7.48,3.34-9.24A9,9,0,0,0,8.55,6.73h7.89A9,9,0,0,0,18,10.9c1.18,1.76,3.34,3.91,3.34,9.24V44.62s.14,3.57-3.13,3.57"/><polygon class="cls-1" points="18.15 31.08 12.48 36.74 6.82 31.08 5.42 32.48 11.09 38.14 5.42 43.8 6.82 45.2 12.48 39.53 18.15 45.2 19.54 43.8 13.88 38.14 19.54 32.48 18.15 31.08"/></svg>