<svg id="Ebene_1" data-name="Ebene 1" xmlns="http://www.w3.org/2000/svg" viewBox="0 0 25 50"><defs><style>.cls-1{fill:#16a646;}</style></defs><title>Icon</title><path class="cls-1" d="M13.15,1.27,12.5.77l-.65.5A31.38,31.38,0,0,0,.77,25,31.38,31.38,0,0,0,11.85,48.73l.65.5.65-.5A31.38,31.38,0,0,0,24.23,25,31.38,31.38,0,0,0,13.15,1.27m.46,35.6v8.55c-.43.45-.81.81-1.11,1.07-.27-.25-.62-.58-1-1V37L3.15,28.72a28.23,28.23,0,0,1-.24-3.24L11.48,34V24.23L4.1,16.85c.23-.77.5-1.5.78-2.22l6.59,6.59V4.49c.4-.41.75-.74,1-1,.29.26.67.62,1.1,1.07V21.05l6.49-6.49c.28.71.55,1.44.79,2.21L13.6,24.05v9.81l8.49-8.48a28,28,0,0,1-.23,3.23Z"/></svg>